<svg xmlns="http://www.w3.org/2000/svg" width="375" viewBox="0 0 375 375" height="375" version="1.0"><defs><clipPath id="a"><path d="M 148.058594 117.875 L 204.660156 117.875 L 204.660156 201.160156 L 148.058594 201.160156 Z M 148.058594 117.875"/></clipPath><clipPath id="b"><path d="M 153.316406 211 L 199.402344 211 L 199.402344 247.015625 L 153.316406 247.015625 Z M 153.316406 211"/></clipPath><clipPath id="c"><path d="M 153.316406 200.925781 L 199.402344 200.925781 L 199.402344 236 L 153.316406 236 Z M 153.316406 200.925781"/></clipPath></defs><path fill="#EDBEA9" d="M 163.875 167.792969 C 163.285156 167.792969 162.691406 168.070312 162.1875 168.550781 C 162.167969 168.570312 162.148438 168.589844 162.125 168.605469 C 161.378906 169.386719 160.90625 170.304688 160.710938 171.371094 C 160.472656 172.433594 160.550781 173.476562 160.945312 174.492188 C 161.304688 175.339844 161.886719 175.882812 162.582031 176.019531 C 163.28125 176.15625 164.027344 175.890625 164.691406 175.253906 C 165.449219 174.476562 165.925781 173.550781 166.121094 172.476562 C 166.578125 170.21875 165.738281 168.132812 164.246094 167.824219 C 164.125 167.800781 164 167.789062 163.875 167.792969 Z M 163.875 167.792969"/><path fill="#F9E4C8" d="M 166.121094 172.480469 C 166.578125 170.222656 165.738281 168.136719 164.246094 167.828125 C 164.125 167.804688 164 167.792969 163.875 167.792969 C 163.464844 167.800781 163.085938 167.914062 162.738281 168.132812 C 162.339844 168.75 162.066406 169.421875 161.925781 170.148438 C 161.6875 171.210938 161.765625 172.25 162.160156 173.265625 C 162.519531 174.113281 163.101562 174.65625 163.796875 174.792969 C 164.347656 174.894531 164.851562 174.789062 165.316406 174.484375 C 165.710938 173.867188 165.980469 173.199219 166.121094 172.480469 Z M 166.121094 172.480469"/><path fill="#0062A5" d="M 177.183594 162.976562 L 175.953125 161.773438 C 175.351562 162.722656 174.851562 163.722656 174.457031 164.773438 L 174.910156 166.023438 Z M 177.183594 162.976562"/><path fill="#D11E38" d="M 180.28125 166.757812 C 180.269531 166.75 180.261719 166.738281 180.253906 166.726562 L 177.671875 163.527344 L 175.25 166.769531 C 175.238281 166.789062 175.21875 166.804688 175.199219 166.820312 L 177.707031 173.710938 Z M 180.28125 166.757812"/><path fill="#D11E38" d="M 162.1875 167.640625 C 162.84375 167.15625 163.574219 166.984375 164.382812 167.125 L 164.390625 167.125 C 164.445312 161.660156 165.574219 159.421875 166.226562 158.578125 C 165.710938 158.382812 165.207031 158.15625 164.71875 157.902344 C 164.636719 157.914062 164.5 157.941406 164.320312 157.984375 C 163.648438 158.523438 161.414062 160.835938 162.1875 167.640625 Z M 162.1875 167.640625"/><path fill="#1888C6" d="M 185.59375 155.53125 C 183.878906 156.734375 182.027344 157.65625 180.03125 158.289062 C 179.257812 158.546875 178.496094 158.765625 177.746094 158.949219 C 177.988281 159.101562 180.617188 160.820312 181.714844 163.644531 C 182.796875 162.476562 185.714844 158.992188 185.59375 155.53125 Z M 185.59375 155.53125"/><path fill="#0062A5" d="M 181.191406 164.308594 C 180.804688 163.1875 180.210938 162.195312 179.40625 161.332031 L 178.121094 162.941406 L 180.570312 165.980469 Z M 181.191406 164.308594"/><path fill="#D11E38" d="M 178.902344 160.8125 C 178.488281 160.414062 178.050781 160.042969 177.582031 159.707031 C 177.132812 160.160156 176.726562 160.648438 176.359375 161.167969 L 177.625 162.40625 Z M 178.902344 160.8125"/><path fill="#1888C6" d="M 169.464844 159.453125 C 169.980469 160.609375 171.363281 163.1875 173.867188 164.300781 C 174.222656 163.382812 175.289062 160.929688 177.203125 159.078125 C 175.570312 159.457031 173.914062 159.652344 172.242188 159.664062 C 171.308594 159.667969 170.382812 159.59375 169.464844 159.453125 Z M 169.464844 159.453125"/><path fill="#8B5E3C" d="M 153.5 145.136719 C 154.175781 144.800781 154.875 144.746094 155.597656 144.980469 C 159.324219 142.285156 159.601562 135.804688 159.613281 135.417969 C 159.109375 135.203125 158.617188 134.960938 158.140625 134.6875 C 158.050781 134.636719 157.992188 134.5625 157.96875 134.464844 C 157.941406 134.367188 157.953125 134.273438 158.007812 134.183594 C 158.058594 134.097656 158.136719 134.042969 158.234375 134.019531 C 158.335938 133.996094 158.425781 134.015625 158.511719 134.074219 C 158.585938 134.117188 165.5625 138.28125 172.164062 134.722656 C 170.65625 134.296875 169.285156 133.601562 168.054688 132.628906 C 167.898438 132.507812 167.867188 132.359375 167.953125 132.183594 C 168.042969 132.007812 168.179688 131.945312 168.367188 131.996094 C 168.453125 132.019531 176.429688 134.222656 182.703125 132.09375 C 181.441406 131.46875 180.265625 130.710938 179.175781 129.816406 C 179.101562 129.753906 179.058594 129.671875 179.050781 129.574219 C 179.042969 129.472656 179.070312 129.386719 179.132812 129.3125 C 179.195312 129.234375 179.277344 129.191406 179.375 129.183594 C 179.472656 129.175781 179.5625 129.203125 179.636719 129.269531 C 179.667969 129.296875 182.871094 131.988281 186.523438 132.65625 C 188.453125 133.003906 189.5625 133.855469 190.164062 134.546875 C 190.472656 134.222656 190.835938 133.984375 191.257812 133.832031 C 189.5 127.460938 185.652344 123.34375 179.808594 121.601562 C 177.015625 120.792969 174.175781 120.558594 171.289062 120.90625 C 171.121094 120.9375 170.996094 120.882812 170.914062 120.734375 C 170.828125 120.585938 170.839844 120.449219 170.949219 120.320312 L 171.878906 119.214844 C 160.980469 121.761719 154.992188 128.703125 154.933594 128.773438 C 154.863281 128.859375 154.773438 128.898438 154.664062 128.898438 C 153.238281 128.898438 152.394531 128.4375 151.898438 127.925781 C 152.257812 129.339844 153.515625 130.746094 153.53125 130.761719 C 153.621094 130.855469 153.652344 130.960938 153.628906 131.085938 C 153.605469 131.207031 153.535156 131.296875 153.417969 131.347656 C 152.238281 131.878906 150.441406 131.53125 149.4375 131.261719 C 150.132812 132.40625 151.648438 132.988281 151.667969 132.992188 C 151.753906 133.027344 151.820312 133.085938 151.859375 133.167969 C 151.902344 133.25 151.910156 133.339844 151.886719 133.429688 C 149.796875 140.847656 152.105469 144.609375 152.867188 145.59375 C 153.054688 145.410156 153.265625 145.257812 153.5 145.136719 Z M 153.5 145.136719"/><path fill="#F9E4C8" d="M 190.597656 135.140625 C 190.683594 135.28125 190.757812 135.425781 190.816406 135.578125 C 191.328125 137.125 191.65625 138.710938 191.804688 140.332031 C 192.0625 140.433594 192.324219 140.480469 192.597656 140.476562 C 192.507812 139.617188 192.570312 138.933594 193.164062 138.640625 C 193.667969 138.414062 194.167969 138.417969 194.664062 138.660156 C 194.820312 138.101562 194.839844 137.539062 194.730469 136.972656 C 194.585938 136.167969 194.207031 135.496094 193.589844 134.960938 C 193.066406 134.492188 192.457031 134.316406 191.765625 134.433594 C 191.292969 134.53125 190.902344 134.769531 190.597656 135.140625 Z M 190.597656 135.140625"/><path fill="#F9E4C8" d="M 179.808594 157.605469 C 184.554688 156.035156 187.867188 153.371094 189.652344 149.6875 C 192.753906 143.289062 190.171875 135.898438 190.144531 135.820312 C 190.085938 135.675781 190.011719 135.539062 189.921875 135.410156 C 189.871094 135.371094 189.832031 135.316406 189.8125 135.253906 C 189.363281 134.648438 188.375 133.726562 186.398438 133.371094 C 185.441406 133.191406 184.519531 132.90625 183.628906 132.523438 C 178.882812 134.410156 173.136719 133.710938 170.164062 133.144531 C 171.863281 134.050781 173.171875 134.195312 173.1875 134.199219 C 173.355469 134.214844 173.460938 134.308594 173.5 134.472656 C 173.539062 134.640625 173.488281 134.769531 173.34375 134.859375 C 171.210938 136.226562 168.878906 136.898438 166.347656 136.875 C 164.269531 136.855469 162.257812 136.464844 160.320312 135.703125 C 160.246094 137.0625 159.726562 142.679688 156.21875 145.410156 C 156.230469 145.476562 156.21875 145.542969 156.191406 145.605469 C 156.191406 145.609375 156.1875 145.613281 156.183594 145.621094 C 156.65625 147.25 158.859375 153.773438 164.625 157.03125 C 168.78125 159.375 173.886719 159.566406 179.808594 157.605469 Z M 172.730469 150.339844 C 172.78125 150.242188 172.855469 150.179688 172.957031 150.148438 C 175.148438 149.460938 177.234375 148.539062 179.214844 147.375 C 179.3125 147.316406 179.414062 147.308594 179.519531 147.347656 C 179.621094 147.386719 179.695312 147.460938 179.730469 147.566406 C 179.804688 147.785156 181.511719 152.914062 178.105469 154.191406 C 177.742188 154.332031 177.367188 154.402344 176.976562 154.40625 C 174.835938 154.40625 173.292969 152.066406 172.71875 150.628906 C 172.679688 150.53125 172.683594 150.433594 172.730469 150.339844 Z M 172.730469 150.339844"/><path fill="#F9E4C8" d="M 179.808594 157.605469 C 184.554688 156.035156 187.867188 153.371094 189.652344 149.6875 C 192.753906 143.289062 190.171875 135.898438 190.144531 135.820312 C 190.085938 135.675781 190.011719 135.539062 189.921875 135.410156 C 189.871094 135.371094 189.832031 135.316406 189.8125 135.253906 C 189.363281 134.648438 188.375 133.726562 186.398438 133.371094 C 185.441406 133.191406 184.519531 132.90625 183.628906 132.523438 C 178.882812 134.410156 173.136719 133.710938 170.164062 133.144531 C 171.863281 134.050781 173.171875 134.195312 173.1875 134.199219 C 173.355469 134.214844 173.460938 134.308594 173.5 134.472656 C 173.539062 134.640625 173.488281 134.769531 173.34375 134.859375 C 171.210938 136.226562 168.878906 136.898438 166.347656 136.875 C 164.269531 136.855469 162.257812 136.464844 160.320312 135.703125 C 160.246094 137.0625 159.726562 142.679688 156.21875 145.410156 C 156.230469 145.476562 156.21875 145.542969 156.191406 145.605469 C 156.191406 145.609375 156.1875 145.613281 156.183594 145.621094 C 156.65625 147.25 158.859375 153.773438 164.625 157.03125 C 168.78125 159.375 173.886719 159.566406 179.808594 157.605469 Z M 179.808594 157.605469"/><path fill="#231F20" d="M 173.152344 150.34375 L 179.164062 148.332031 L 179.46875 150.871094 L 178.515625 152.777344 L 177.742188 153.667969 L 175.734375 153.667969 L 174.554688 152.949219 C 174.554688 152.949219 173.878906 151.957031 173.738281 151.75 C 173.601562 151.546875 173.152344 150.34375 173.152344 150.34375 Z M 173.152344 150.34375"/><path fill="#F24062" d="M 176.742188 151.730469 C 175.839844 152.007812 175.257812 152.757812 175.390625 153.453125 L 175.742188 153.664062 L 177.75 153.664062 L 178.527344 152.773438 L 178.769531 152.289062 C 178.4375 151.730469 177.589844 151.472656 176.742188 151.730469 Z M 176.742188 151.730469"/><path fill="#FFF" d="M 173.730469 151.746094 L 179.339844 149.730469 L 179.101562 148.511719 L 177.746094 148.839844 L 173.730469 150.3125 L 173.152344 150.652344 Z M 173.730469 151.746094"/><path fill="#EDBEA9" d="M 153.820312 145.785156 C 152.628906 146.390625 152.269531 148.113281 153.027344 149.617188 C 153.382812 150.355469 153.925781 150.894531 154.664062 151.242188 C 155.296875 151.550781 155.929688 151.554688 156.5625 151.25 C 156.925781 151.0625 157.207031 150.792969 157.40625 150.433594 C 156.574219 148.929688 155.925781 147.347656 155.457031 145.6875 C 154.898438 145.492188 154.351562 145.523438 153.820312 145.785156 Z M 153.820312 145.785156"/><path fill="#D9F4F4" d="M 160.285156 174.769531 C 160.082031 174.21875 159.953125 173.648438 159.902344 173.0625 C 159.855469 172.472656 159.882812 171.890625 159.992188 171.3125 C 160.105469 170.734375 160.289062 170.179688 160.550781 169.652344 C 160.8125 169.125 161.140625 168.644531 161.53125 168.207031 C 160.804688 162.609375 161.980469 159.738281 162.992188 158.355469 C 160.707031 159.089844 156.953125 160.839844 155.835938 164.597656 C 154.050781 170.617188 153.804688 174.984375 155.1875 175.988281 C 156.191406 176.71875 158.734375 176.386719 160.386719 176.039062 C 160.414062 176.03125 160.445312 176.023438 160.472656 176.019531 C 160.664062 175.980469 160.839844 175.941406 161 175.902344 C 160.695312 175.566406 160.457031 175.1875 160.285156 174.769531 Z M 160.285156 174.769531"/><path fill="#D9F4F4" d="M 199.425781 148.109375 C 195.507812 145.148438 191.941406 145.597656 191.65625 145.636719 C 191.417969 147.15625 190.96875 148.609375 190.308594 150 C 189.34375 151.976562 188.003906 153.648438 186.28125 155.011719 C 186.789062 159.511719 182.464844 163.941406 181.882812 164.515625 L 178.046875 174.875 C 177.988281 175.035156 177.875 175.113281 177.710938 175.109375 C 177.542969 175.113281 177.429688 175.03125 177.371094 174.875 L 173.792969 165.046875 C 170.484375 163.703125 168.957031 160.175781 168.621094 159.296875 C 168.058594 159.175781 167.5 159.023438 166.953125 158.839844 C 166.539062 159.269531 165.136719 161.175781 165.113281 167.394531 C 165.511719 167.625 165.84375 167.929688 166.105469 168.308594 L 166.148438 168.308594 C 166.972656 168.429688 168.5625 169.101562 168.667969 170.769531 C 168.769531 172.4375 167.421875 173.089844 166.679688 173.191406 C 166.40625 174.183594 165.910156 175.046875 165.183594 175.773438 C 164.507812 176.433594 163.726562 176.777344 162.957031 176.777344 C 162.78125 176.777344 162.609375 176.761719 162.4375 176.726562 C 162.175781 176.671875 161.929688 176.578125 161.699219 176.449219 C 161.671875 176.464844 161.644531 176.476562 161.617188 176.484375 C 161.570312 176.496094 161.292969 176.574219 160.871094 176.667969 L 160.851562 178.347656 C 160.867188 178.390625 160.875 178.4375 160.875 178.484375 C 160.875 178.53125 160.863281 178.574219 160.847656 178.617188 L 160.804688 181.910156 C 160.804688 182.292969 160.875 182.664062 161.015625 183.023438 C 161.160156 183.378906 161.367188 183.695312 161.636719 183.96875 C 161.90625 184.242188 162.21875 184.453125 162.570312 184.601562 C 162.925781 184.75 163.292969 184.824219 163.675781 184.824219 L 172.046875 184.804688 C 172.710938 184.828125 173.328125 184.675781 173.90625 184.34375 C 174.480469 184.011719 174.929688 183.554688 175.246094 182.96875 L 177.28125 179.234375 C 177.347656 179.113281 177.453125 179.050781 177.59375 179.050781 C 177.730469 179.050781 177.835938 179.113281 177.902344 179.234375 L 179.484375 181.925781 C 179.761719 182.402344 180.101562 182.828125 180.503906 183.199219 C 180.90625 183.570312 181.359375 183.875 181.851562 184.109375 C 182.347656 184.34375 182.867188 184.496094 183.410156 184.570312 C 183.953125 184.648438 184.492188 184.640625 185.035156 184.550781 L 192.117188 183.402344 C 192.363281 183.363281 192.597656 183.28125 192.8125 183.15625 C 193.03125 183.027344 193.21875 182.863281 193.375 182.667969 C 193.53125 182.46875 193.644531 182.246094 193.71875 182.003906 C 193.789062 181.761719 193.816406 181.515625 193.796875 181.261719 L 192.601562 165.535156 C 192.597656 165.492188 192.601562 165.453125 192.613281 165.414062 C 193.703125 161.300781 196.570312 155.945312 198.46875 152.402344 C 199.007812 151.398438 199.480469 150.523438 199.820312 149.84375 C 199.972656 149.542969 200.011719 149.230469 199.9375 148.902344 C 199.863281 148.578125 199.691406 148.3125 199.425781 148.109375 Z M 199.425781 148.109375"/><path fill="#EDBEA9" d="M 186.761719 193.347656 C 187.011719 192.757812 187.347656 192.21875 187.765625 191.734375 L 182.394531 191.734375 L 182.394531 193.347656 Z M 186.761719 193.347656"/><path fill="#8B5E3C" d="M 186.917969 195.535156 C 186.910156 195.632812 186.871094 195.714844 186.796875 195.78125 C 186.722656 195.847656 186.636719 195.878906 186.539062 195.871094 C 186.441406 195.867188 186.355469 195.828125 186.292969 195.753906 C 186.226562 195.679688 186.195312 195.59375 186.199219 195.492188 C 186.246094 195.003906 186.347656 194.527344 186.496094 194.0625 L 181.984375 194.0625 C 181.796875 194.066406 181.636719 194.132812 181.503906 194.269531 C 181.375 194.402344 181.308594 194.5625 181.308594 194.753906 L 181.308594 198.804688 C 181.308594 198.972656 181.339844 199.132812 181.402344 199.289062 C 181.46875 199.445312 181.558594 199.582031 181.675781 199.699219 C 181.792969 199.816406 181.929688 199.910156 182.085938 199.972656 C 182.238281 200.039062 182.398438 200.070312 182.566406 200.070312 L 195.078125 200.070312 C 195.433594 200.070312 195.777344 200 196.105469 199.859375 C 196.433594 199.714844 196.71875 199.515625 196.964844 199.253906 C 197.210938 198.996094 197.394531 198.695312 197.515625 198.359375 C 197.640625 198.023438 197.691406 197.675781 197.671875 197.316406 C 197.503906 194.203125 196.476562 190.492188 192.511719 190.492188 C 187.277344 190.5 186.929688 195.328125 186.917969 195.535156 Z M 186.917969 195.535156"/><path fill="#F9E4C8" d="M 167.953125 170.816406 C 167.890625 169.828125 167.109375 169.371094 166.570312 169.167969 C 166.96875 170.222656 167.066406 171.304688 166.863281 172.414062 C 167.289062 172.28125 168.019531 171.890625 167.953125 170.816406 Z M 167.953125 170.816406"/><path fill="#D11E38" d="M 161.304688 158.183594 C 160.160156 158.125 158.28125 158.171875 156.496094 158.863281 C 155.859375 159.109375 155.472656 159.476562 155.3125 159.980469 C 155.011719 160.9375 155.59375 162.140625 155.886719 162.664062 C 157.1875 160.367188 159.410156 158.992188 161.304688 158.183594 Z M 161.304688 158.183594"/><path fill="#F9E4C8" d="M 202.683594 139.71875 C 202.195312 139.671875 201.21875 140.765625 200.863281 141.46875 C 200.820312 141.558594 200.75 141.621094 200.65625 141.652344 C 200.5625 141.683594 200.46875 141.675781 200.378906 141.632812 C 200.292969 141.585938 200.230469 141.515625 200.203125 141.421875 C 200.171875 141.324219 200.179688 141.234375 200.226562 141.144531 C 200.300781 141 200.386719 140.859375 200.476562 140.722656 C 200.476562 140.714844 200.476562 140.707031 200.476562 140.695312 C 200.75 140.039062 201.367188 138.160156 201 137.359375 C 200.945312 137.214844 200.84375 137.121094 200.695312 137.070312 C 200.140625 136.886719 199.257812 138.570312 198.839844 139.855469 C 198.816406 139.957031 198.757812 140.035156 198.664062 140.089844 C 198.574219 140.140625 198.476562 140.148438 198.375 140.117188 C 198.277344 140.082031 198.203125 140.015625 198.160156 139.917969 C 198.121094 139.820312 198.121094 139.722656 198.164062 139.625 C 198.191406 139.546875 198.234375 139.417969 198.289062 139.265625 C 198.433594 138.15625 198.371094 136.480469 197.773438 136.378906 C 197.644531 136.355469 197.53125 136.390625 197.433594 136.476562 C 196.820312 136.957031 196.421875 138.789062 196.285156 140.058594 C 196.285156 140.070312 196.285156 140.078125 196.285156 140.089844 C 196.273438 140.210938 196.261719 140.328125 196.253906 140.429688 C 196.25 140.523438 196.210938 140.605469 196.140625 140.667969 C 196.074219 140.734375 195.992188 140.769531 195.898438 140.769531 L 195.867188 140.769531 C 195.769531 140.761719 195.6875 140.71875 195.625 140.644531 C 195.558594 140.566406 195.53125 140.480469 195.539062 140.382812 C 195.539062 140.34375 195.546875 140.269531 195.558594 140.167969 C 195.316406 139.921875 195.050781 139.703125 194.757812 139.523438 L 194.734375 139.523438 C 194.699219 139.507812 194.667969 139.484375 194.640625 139.460938 C 194.257812 139.246094 193.835938 139.132812 193.488281 139.304688 C 193.136719 139.480469 193.308594 140.449219 193.460938 141.398438 C 193.628906 142.441406 193.835938 143.726562 193.628906 144.9375 C 195.613281 145.183594 197.429688 145.867188 199.085938 146.992188 C 200.882812 144.921875 203.417969 141.386719 203.03125 140.164062 C 202.929688 139.875 202.816406 139.730469 202.683594 139.71875 Z M 202.683594 139.71875"/><path fill="#D11E38" d="M 152.945312 180.148438 C 152.957031 180.207031 153.007812 180.386719 153.371094 180.507812 C 154.871094 181.007812 160.019531 180.496094 160.070312 180.492188 L 160.109375 180.492188 L 160.128906 178.835938 L 153.488281 178.71875 C 153.1875 179.121094 152.835938 179.765625 152.945312 180.148438 Z M 152.945312 180.148438"/><path fill="#1888C6" d="M 188.527344 191.011719 C 189.464844 190.300781 190.519531 189.902344 191.691406 189.820312 L 191.207031 184.28125 L 185.148438 185.261719 C 184.535156 185.363281 183.921875 185.371094 183.308594 185.285156 C 182.695312 185.199219 182.109375 185.023438 181.546875 184.761719 C 180.988281 184.496094 180.480469 184.152344 180.019531 183.730469 C 179.5625 183.3125 179.179688 182.832031 178.867188 182.292969 L 177.605469 180.144531 L 175.871094 183.324219 C 175.492188 184.027344 174.957031 184.578125 174.265625 184.976562 C 173.574219 185.375 172.832031 185.558594 172.035156 185.53125 L 164.011719 185.550781 L 163.746094 189.816406 C 164.921875 189.898438 165.980469 190.292969 166.921875 191.007812 L 173.414062 191.007812 C 173.890625 191.007812 174.339844 190.886719 174.753906 190.644531 C 175.167969 190.402344 175.496094 190.074219 175.734375 189.65625 L 177.34375 186.621094 L 177.359375 186.601562 C 177.363281 186.589844 177.371094 186.578125 177.378906 186.566406 C 177.386719 186.558594 177.394531 186.546875 177.402344 186.542969 L 177.425781 186.515625 L 177.464844 186.488281 L 177.480469 186.476562 C 177.496094 186.46875 177.507812 186.464844 177.523438 186.460938 C 177.53125 186.457031 177.539062 186.453125 177.546875 186.449219 C 177.558594 186.445312 177.570312 186.441406 177.582031 186.441406 L 177.75 186.441406 L 177.777344 186.449219 C 177.792969 186.453125 177.804688 186.460938 177.816406 186.464844 L 177.835938 186.476562 L 177.871094 186.503906 C 177.882812 186.507812 177.890625 186.515625 177.898438 186.527344 C 177.90625 186.535156 177.914062 186.542969 177.921875 186.550781 L 177.945312 186.582031 L 177.960938 186.605469 L 179.707031 189.648438 C 179.945312 190.066406 180.269531 190.398438 180.683594 190.640625 C 181.101562 190.882812 181.546875 191.003906 182.027344 191.007812 Z M 188.527344 191.011719"/><path fill="#D11E38" d="M 155.28125 163.988281 C 154.660156 164.632812 153.804688 165.859375 153.699219 167.835938 C 153.640625 168.96875 153.617188 170.554688 153.617188 172.167969 C 153.765625 169.429688 154.617188 166.1875 155.148438 164.390625 C 155.1875 164.253906 155.234375 164.128906 155.28125 163.988281 Z M 155.28125 163.988281"/><path fill="#D11E38" d="M 154.773438 176.574219 C 154.042969 176.046875 153.707031 174.996094 153.617188 173.707031 C 153.628906 175.597656 153.65625 177.296875 153.667969 178.003906 L 160.136719 178.113281 L 160.152344 176.820312 C 159.1875 177.019531 158.214844 177.125 157.230469 177.140625 C 156.265625 177.140625 155.355469 176.996094 154.773438 176.574219 Z M 154.773438 176.574219"/><path fill="#EDBEA9" d="M 173.054688 193.347656 L 173.054688 191.726562 L 167.683594 191.726562 C 168.101562 192.210938 168.4375 192.746094 168.695312 193.335938 Z M 173.054688 193.347656"/><path fill="#8B5E3C" d="M 173.414062 194.070312 L 168.953125 194.070312 C 169.105469 194.535156 169.203125 195.011719 169.25 195.5 C 169.253906 195.597656 169.21875 195.683594 169.15625 195.753906 C 169.089844 195.824219 169.007812 195.863281 168.914062 195.867188 C 168.816406 195.871094 168.730469 195.84375 168.660156 195.78125 C 168.585938 195.71875 168.546875 195.636719 168.535156 195.542969 C 168.523438 195.335938 168.171875 190.507812 162.949219 190.507812 C 158.984375 190.507812 157.953125 194.21875 157.785156 197.335938 C 157.765625 197.691406 157.820312 198.039062 157.941406 198.375 C 158.066406 198.710938 158.25 199.011719 158.496094 199.273438 C 158.742188 199.53125 159.027344 199.734375 159.355469 199.875 C 159.683594 200.015625 160.023438 200.085938 160.382812 200.085938 L 172.894531 200.085938 C 173.0625 200.085938 173.222656 200.054688 173.375 199.992188 C 173.527344 199.925781 173.664062 199.835938 173.78125 199.714844 C 173.902344 199.597656 173.992188 199.460938 174.054688 199.304688 C 174.121094 199.152344 174.152344 198.988281 174.152344 198.820312 L 174.152344 194.761719 C 174.152344 194.570312 174.085938 194.410156 173.953125 194.273438 C 173.816406 194.140625 173.65625 194.070312 173.46875 194.070312 Z M 173.414062 194.070312"/><path fill="#6D4123" d="M 155.734375 127.949219 C 155.226562 128.449219 154.953125 128.761719 154.941406 128.777344 C 154.871094 128.863281 154.777344 128.902344 154.667969 128.902344 C 153.242188 128.902344 152.402344 128.441406 151.902344 127.929688 C 152.265625 129.34375 153.523438 130.75 153.539062 130.765625 C 153.625 130.859375 153.65625 130.964844 153.628906 131.089844 C 153.605469 131.210938 153.535156 131.296875 153.417969 131.347656 C 152.238281 131.878906 150.441406 131.53125 149.4375 131.261719 C 150.132812 132.40625 151.648438 132.988281 151.667969 132.992188 C 151.753906 133.027344 151.820312 133.085938 151.859375 133.167969 C 151.902344 133.25 151.910156 133.339844 151.886719 133.429688 C 149.796875 140.847656 152.105469 144.609375 152.867188 145.59375 C 153.054688 145.410156 153.265625 145.257812 153.5 145.136719 C 154.175781 144.800781 154.875 144.746094 155.597656 144.980469 C 159.324219 142.285156 159.601562 135.804688 159.613281 135.417969 C 159.109375 135.203125 158.617188 134.960938 158.140625 134.6875 C 158.050781 134.636719 157.992188 134.5625 157.96875 134.464844 C 157.941406 134.367188 157.953125 134.273438 158.007812 134.183594 C 158.058594 134.097656 158.136719 134.042969 158.234375 134.019531 C 158.335938 133.996094 158.425781 134.015625 158.511719 134.074219 C 158.585938 134.117188 165.5625 138.28125 172.164062 134.722656 C 158.417969 137.695312 155.738281 127.972656 155.734375 127.949219 Z M 155.734375 127.949219"/><path fill="#B5805D" d="M 179.808594 121.609375 C 177.015625 120.800781 174.175781 120.570312 171.289062 120.917969 C 171.121094 120.949219 170.996094 120.890625 170.914062 120.742188 C 170.828125 120.597656 170.839844 120.457031 170.949219 120.328125 L 171.878906 119.222656 C 166.851562 120.40625 162.300781 122.589844 158.226562 125.777344 C 158.363281 125.703125 165.636719 121.796875 168.789062 121.128906 L 167.539062 122.738281 C 167.539062 122.738281 183.722656 118.839844 190.164062 134.554688 C 190.472656 134.230469 190.835938 133.992188 191.257812 133.839844 C 189.5 127.464844 185.652344 123.351562 179.808594 121.609375 Z M 179.808594 121.609375"/><path fill="#EDBEA9" d="M 179.808594 157.605469 C 161.535156 160.5625 159.347656 141.113281 159.347656 141.113281 L 159.210938 141.054688 C 158.601562 142.664062 157.667969 144.28125 156.21875 145.410156 C 156.230469 145.476562 156.21875 145.542969 156.191406 145.605469 C 156.191406 145.609375 156.1875 145.613281 156.183594 145.621094 C 156.65625 147.25 158.859375 153.773438 164.625 157.03125 C 168.78125 159.375 173.886719 159.566406 179.808594 157.605469 Z M 179.808594 157.605469"/><path fill="#FFF4E6" d="M 185.605469 154.617188 C 187.34375 153.300781 188.695312 151.65625 189.65625 149.691406 C 192.757812 143.292969 190.175781 135.898438 190.148438 135.824219 C 190.089844 135.679688 190.015625 135.542969 189.925781 135.414062 C 189.875 135.371094 189.839844 135.320312 189.816406 135.257812 C 189.367188 134.652344 188.378906 133.730469 186.402344 133.375 C 186.398438 133.371094 191.996094 146.125 185.605469 154.617188 Z M 185.605469 154.617188"/><path fill="#FFF4E6" d="M 190.8125 135.578125 C 190.8125 135.578125 193.914062 134.761719 194.417969 138.765625 C 194.417969 138.765625 195.09375 138.550781 195.09375 138.414062 C 195.09375 138.277344 194.917969 136.898438 194.796875 136.824219 C 194.675781 136.75 193.414062 134.402344 193.414062 134.402344 C 193.414062 134.402344 192.390625 134 192.265625 134.046875 C 192.140625 134.09375 191.253906 134.339844 191.253906 134.339844 C 191.039062 134.464844 190.890625 134.644531 190.808594 134.878906 C 190.726562 135.113281 190.726562 135.34375 190.8125 135.578125 Z M 190.8125 135.578125"/><path fill="#B4DBDA" d="M 175.246094 182.972656 L 175.9375 181.703125 C 165.601562 179.054688 171.09375 163.1875 171.09375 163.1875 C 170.015625 162.050781 169.191406 160.753906 168.621094 159.292969 C 168.058594 159.171875 167.5 159.019531 166.953125 158.839844 C 166.539062 159.265625 165.136719 161.171875 165.113281 167.390625 C 165.511719 167.621094 165.84375 167.925781 166.105469 168.304688 L 166.148438 168.304688 C 166.972656 168.425781 168.5625 169.097656 168.667969 170.765625 C 168.769531 172.433594 167.421875 173.089844 166.679688 173.1875 C 166.40625 174.179688 165.910156 175.042969 165.183594 175.773438 C 164.507812 176.429688 163.726562 176.777344 162.957031 176.777344 C 162.78125 176.777344 162.609375 176.757812 162.4375 176.726562 C 162.175781 176.671875 161.929688 176.578125 161.699219 176.445312 C 161.671875 176.460938 161.644531 176.472656 161.617188 176.480469 C 161.570312 176.492188 161.292969 176.570312 160.871094 176.664062 L 160.851562 178.34375 C 160.867188 178.390625 160.875 178.433594 160.875 178.480469 C 160.875 178.527344 160.863281 178.570312 160.847656 178.613281 L 160.804688 181.90625 C 160.804688 182.289062 160.875 182.660156 161.015625 183.019531 C 161.160156 183.375 161.367188 183.691406 161.636719 183.964844 C 161.90625 184.238281 162.21875 184.449219 162.570312 184.597656 C 162.925781 184.746094 163.292969 184.820312 163.675781 184.820312 L 172.046875 184.800781 C 172.707031 184.824219 173.328125 184.671875 173.902344 184.34375 C 174.476562 184.011719 174.925781 183.554688 175.246094 182.972656 Z M 175.246094 182.972656"/><path fill="#FFF" d="M 199.425781 148.109375 C 195.773438 145.347656 192.429688 145.550781 191.765625 145.625 L 191.546875 146.984375 C 191.546875 146.984375 195.859375 146.523438 198.503906 149.746094 C 198.503906 149.746094 192.230469 160.339844 191.53125 165.203125 C 190.835938 170.066406 194.117188 182.617188 192.117188 183.398438 C 192.363281 183.359375 192.597656 183.277344 192.8125 183.148438 C 193.03125 183.019531 193.21875 182.859375 193.375 182.660156 C 193.53125 182.460938 193.644531 182.242188 193.71875 182 C 193.789062 181.757812 193.816406 181.507812 193.796875 181.257812 L 192.601562 165.527344 C 192.597656 165.488281 192.601562 165.445312 192.613281 165.40625 C 193.703125 161.292969 196.570312 155.941406 198.46875 152.398438 C 199.007812 151.390625 199.480469 150.519531 199.820312 149.835938 C 199.96875 149.539062 200.007812 149.226562 199.933594 148.902344 C 199.859375 148.574219 199.6875 148.3125 199.425781 148.109375 Z M 199.425781 148.109375"/><path fill="#0062A5" d="M 179.058594 182.59375 C 178.992188 182.496094 178.925781 182.398438 178.867188 182.296875 L 177.605469 180.148438 L 175.871094 183.324219 C 175.492188 184.027344 174.957031 184.578125 174.265625 184.976562 C 173.574219 185.375 172.832031 185.558594 172.035156 185.53125 L 164.011719 185.550781 L 163.746094 189.816406 C 164.921875 189.898438 165.980469 190.292969 166.921875 191.007812 L 173.414062 191.007812 C 173.890625 191.007812 174.339844 190.886719 174.753906 190.644531 C 175.167969 190.402344 175.496094 190.074219 175.734375 189.65625 L 177.34375 186.621094 L 177.359375 186.601562 C 177.363281 186.589844 177.371094 186.578125 177.378906 186.566406 C 177.386719 186.558594 177.394531 186.546875 177.402344 186.542969 L 177.425781 186.515625 L 177.464844 186.488281 L 177.480469 186.476562 C 177.496094 186.46875 177.507812 186.464844 177.523438 186.460938 C 177.53125 186.457031 177.539062 186.453125 177.546875 186.449219 C 177.558594 186.445312 177.570312 186.441406 177.582031 186.441406 L 177.75 186.441406 L 177.777344 186.449219 C 177.792969 186.453125 177.804688 186.460938 177.816406 186.464844 L 177.835938 186.476562 L 177.871094 186.503906 C 177.882812 186.507812 177.890625 186.515625 177.898438 186.527344 C 177.90625 186.535156 177.914062 186.542969 177.921875 186.550781 L 177.945312 186.582031 L 177.960938 186.605469 L 179.707031 189.648438 C 179.945312 190.066406 180.269531 190.398438 180.683594 190.640625 C 181.101562 190.882812 181.546875 191.003906 182.027344 191.007812 L 185.363281 191.007812 C 179.804688 189.507812 179.058594 182.59375 179.058594 182.59375 Z M 179.058594 182.59375"/><path fill="#B4DBDA" d="M 156.359375 163.300781 C 157.582031 163.679688 160.757812 165.117188 160.449219 169.839844 C 160.714844 169.230469 161.074219 168.6875 161.53125 168.207031 C 160.804688 162.609375 161.980469 159.738281 162.992188 158.355469 C 160.988281 158.996094 157.851562 160.421875 156.359375 163.300781 Z M 156.359375 163.300781"/><path fill="#B4DBDA" d="M 160.285156 174.769531 C 160.273438 174.738281 160.261719 174.703125 160.25 174.671875 C 156.160156 176.058594 154.34375 173.980469 154.34375 173.980469 C 154.453125 174.976562 154.730469 175.667969 155.1875 175.996094 C 156.191406 176.726562 158.734375 176.394531 160.386719 176.046875 C 160.414062 176.039062 160.445312 176.03125 160.472656 176.03125 C 160.664062 175.988281 160.839844 175.949219 161 175.910156 C 160.695312 175.570312 160.457031 175.191406 160.285156 174.769531 Z M 160.285156 174.769531"/><path fill="#EDBEA9" d="M 193.875 143.003906 L 193.675781 143.113281 C 193.734375 143.722656 193.710938 144.332031 193.617188 144.933594 C 195.597656 145.179688 197.417969 145.867188 199.074219 146.992188 C 200.703125 145.113281 202.9375 142.039062 203.050781 140.5625 C 198.621094 147.847656 193.875 143.003906 193.875 143.003906 Z M 193.875 143.003906"/><path fill="#7F4B28" d="M 158.492188 199.261719 C 159.003906 199.808594 159.632812 200.082031 160.378906 200.078125 L 172.890625 200.078125 C 173.058594 200.078125 173.21875 200.046875 173.375 199.980469 C 173.527344 199.917969 173.664062 199.828125 173.78125 199.707031 C 173.898438 199.589844 173.992188 199.453125 174.054688 199.296875 C 174.117188 199.144531 174.148438 198.980469 174.148438 198.8125 L 174.148438 194.761719 C 174.148438 194.570312 174.082031 194.410156 173.949219 194.273438 C 173.816406 194.140625 173.65625 194.070312 173.464844 194.070312 L 168.953125 194.070312 C 169.101562 194.535156 169.203125 195.011719 169.25 195.5 C 169.25 195.597656 169.21875 195.683594 169.152344 195.753906 C 169.085938 195.824219 169.007812 195.863281 168.910156 195.867188 C 168.816406 195.871094 168.730469 195.84375 168.65625 195.78125 C 168.585938 195.71875 168.542969 195.636719 168.535156 195.542969 C 168.453125 194.679688 168.203125 193.867188 167.785156 193.109375 L 167.683594 193.277344 C 167.683594 193.277344 168.722656 198.734375 163.75 198.664062 C 158.777344 198.597656 158.347656 196.691406 158.078125 195.097656 C 157.921875 195.835938 157.824219 196.578125 157.789062 197.332031 C 157.746094 198.078125 157.980469 198.722656 158.492188 199.261719 Z M 158.492188 199.261719"/><path fill="#B5805D" d="M 165.773438 192.105469 C 165.773438 192.25 165.703125 192.386719 165.5625 192.515625 C 165.421875 192.648438 165.21875 192.765625 164.957031 192.863281 C 164.699219 192.964844 164.398438 193.042969 164.054688 193.097656 C 163.714844 193.148438 163.359375 193.175781 162.992188 193.175781 C 162.621094 193.175781 162.265625 193.148438 161.925781 193.097656 C 161.585938 193.042969 161.285156 192.964844 161.023438 192.863281 C 160.761719 192.765625 160.5625 192.648438 160.421875 192.515625 C 160.28125 192.386719 160.207031 192.25 160.207031 192.105469 C 160.207031 191.964844 160.28125 191.828125 160.421875 191.699219 C 160.5625 191.566406 160.761719 191.449219 161.023438 191.351562 C 161.285156 191.25 161.585938 191.171875 161.925781 191.117188 C 162.265625 191.0625 162.621094 191.039062 162.992188 191.039062 C 163.359375 191.039062 163.714844 191.0625 164.054688 191.117188 C 164.398438 191.171875 164.699219 191.25 164.957031 191.351562 C 165.21875 191.449219 165.421875 191.566406 165.5625 191.699219 C 165.703125 191.828125 165.773438 191.964844 165.773438 192.105469 Z M 165.773438 192.105469"/><path fill="#7F4B28" d="M 196.957031 199.261719 C 196.445312 199.808594 195.816406 200.082031 195.070312 200.078125 L 182.558594 200.078125 C 182.390625 200.078125 182.230469 200.046875 182.074219 199.980469 C 181.921875 199.917969 181.785156 199.828125 181.667969 199.707031 C 181.550781 199.589844 181.460938 199.453125 181.394531 199.296875 C 181.332031 199.144531 181.300781 198.980469 181.300781 198.8125 L 181.300781 194.761719 C 181.300781 194.574219 181.367188 194.410156 181.496094 194.277344 C 181.628906 194.144531 181.789062 194.074219 181.976562 194.070312 L 186.492188 194.070312 C 186.339844 194.535156 186.242188 195.011719 186.195312 195.5 C 186.191406 195.601562 186.21875 195.6875 186.285156 195.761719 C 186.351562 195.835938 186.433594 195.875 186.535156 195.882812 C 186.632812 195.886719 186.71875 195.855469 186.792969 195.789062 C 186.867188 195.722656 186.90625 195.640625 186.910156 195.542969 C 186.992188 194.679688 187.238281 193.867188 187.65625 193.109375 L 187.765625 193.285156 C 187.765625 193.285156 186.726562 198.742188 191.695312 198.675781 C 196.667969 198.605469 197.101562 196.699219 197.375 195.105469 C 197.527344 195.84375 197.625 196.585938 197.660156 197.339844 C 197.699219 198.082031 197.46875 198.722656 196.957031 199.261719 Z M 196.957031 199.261719"/><path fill="#B5805D" d="M 195.242188 192.105469 C 195.242188 192.25 195.171875 192.386719 195.027344 192.515625 C 194.886719 192.648438 194.6875 192.765625 194.425781 192.863281 C 194.164062 192.964844 193.863281 193.042969 193.523438 193.097656 C 193.183594 193.148438 192.828125 193.175781 192.457031 193.175781 C 192.089844 193.175781 191.734375 193.148438 191.394531 193.097656 C 191.050781 193.042969 190.75 192.964844 190.492188 192.863281 C 190.230469 192.765625 190.027344 192.648438 189.886719 192.515625 C 189.746094 192.386719 189.675781 192.25 189.675781 192.105469 C 189.675781 191.964844 189.746094 191.828125 189.886719 191.699219 C 190.027344 191.566406 190.230469 191.449219 190.492188 191.351562 C 190.75 191.25 191.050781 191.171875 191.394531 191.117188 C 191.734375 191.0625 192.089844 191.039062 192.457031 191.039062 C 192.828125 191.039062 193.183594 191.0625 193.523438 191.117188 C 193.863281 191.171875 194.164062 191.25 194.425781 191.351562 C 194.6875 191.449219 194.886719 191.566406 195.027344 191.699219 C 195.171875 191.828125 195.242188 191.964844 195.242188 192.105469 Z M 195.242188 192.105469"/><path fill="#53C6F9" d="M 189.648438 184.53125 L 190.175781 190.136719 C 190.660156 189.976562 191.152344 189.871094 191.660156 189.824219 L 191.691406 189.808594 L 191.207031 184.28125 Z M 189.648438 184.53125"/><path fill="#53C6F9" d="M 185.59375 155.671875 C 184.914062 156.085938 184.253906 156.53125 183.621094 157.011719 L 183.367188 156.894531 C 183.367188 156.894531 184.347656 159.59375 181.714844 163.644531 C 182.78125 162.492188 185.632812 159.085938 185.59375 155.671875 Z M 185.59375 155.671875"/><path fill="#B5805D" d="M 160.800781 126.492188 C 160.800781 126.492188 163.484375 124.101562 166.238281 124.160156 L 165.304688 125.152344 C 165.304688 125.152344 167.863281 124.328125 170.214844 125.152344 C 170.214844 125.152344 165.214844 125.671875 163.335938 126.707031 L 164.066406 125.371094 Z M 160.800781 126.492188"/><path fill="#F24062" d="M 178.121094 160.277344 L 177.203125 161.992188 L 177.628906 164.097656 L 179.1875 167.15625 L 177.628906 172.835938 L 180.386719 166.558594 L 177.746094 163.050781 L 179.40625 161.332031 L 178.308594 160.277344"/><path fill="#AA0021" d="M 177.628906 164.097656 L 176.359375 167.15625 L 178.121094 173.625 C 178.121094 173.625 175.957031 170.128906 175.820312 169.84375 C 175.683594 169.558594 174.910156 166.023438 174.910156 166.023438 Z M 177.628906 164.097656"/><path fill="#AA0021" d="M 162.730469 160.417969 C 162.730469 160.417969 165.128906 158.3125 164.390625 167.125 L 166.234375 158.582031 L 164.351562 157.53125 Z M 162.730469 160.417969"/><path fill="#231F20" d="M 182.621094 141.617188 C 182.75 142.191406 182.808594 142.757812 182.808594 143.316406 C 182.804688 143.871094 182.738281 144.378906 182.609375 144.832031 C 182.476562 145.289062 182.292969 145.65625 182.054688 145.941406 C 181.820312 146.222656 181.546875 146.398438 181.234375 146.464844 C 180.925781 146.535156 180.605469 146.492188 180.273438 146.332031 C 179.9375 146.175781 179.617188 145.917969 179.308594 145.5625 C 179.003906 145.203125 178.730469 144.769531 178.5 144.265625 C 178.265625 143.761719 178.085938 143.222656 177.957031 142.644531 C 177.832031 142.070312 177.773438 141.503906 177.773438 140.949219 C 177.777344 140.390625 177.84375 139.882812 177.972656 139.429688 C 178.105469 138.976562 178.289062 138.605469 178.523438 138.324219 C 178.761719 138.039062 179.035156 137.863281 179.347656 137.796875 C 179.65625 137.726562 179.976562 137.773438 180.308594 137.929688 C 180.644531 138.085938 180.964844 138.34375 181.273438 138.703125 C 181.578125 139.058594 181.851562 139.492188 182.082031 139.996094 C 182.316406 140.5 182.496094 141.042969 182.621094 141.617188 Z M 182.621094 141.617188"/><path fill="#231F20" d="M 170.683594 144.742188 C 170.808594 145.316406 170.871094 145.882812 170.867188 146.441406 C 170.863281 147 170.796875 147.503906 170.667969 147.957031 C 170.539062 148.414062 170.355469 148.78125 170.117188 149.066406 C 169.878906 149.347656 169.605469 149.523438 169.296875 149.59375 C 168.988281 149.660156 168.664062 149.617188 168.332031 149.460938 C 167.996094 149.300781 167.675781 149.042969 167.371094 148.6875 C 167.0625 148.328125 166.792969 147.898438 166.558594 147.390625 C 166.324219 146.886719 166.144531 146.347656 166.019531 145.773438 C 165.894531 145.195312 165.832031 144.628906 165.835938 144.074219 C 165.835938 143.515625 165.902344 143.011719 166.035156 142.554688 C 166.164062 142.101562 166.347656 141.730469 166.585938 141.449219 C 166.824219 141.164062 167.097656 140.988281 167.40625 140.921875 C 167.714844 140.851562 168.035156 140.898438 168.371094 141.054688 C 168.703125 141.210938 169.023438 141.46875 169.332031 141.828125 C 169.640625 142.1875 169.910156 142.617188 170.144531 143.121094 C 170.378906 143.628906 170.558594 144.167969 170.683594 144.742188 Z M 170.683594 144.742188"/><path fill="#231F20" d="M 176.570312 154.8125 C 176.882812 154.8125 177.1875 154.773438 177.488281 154.695312 C 181.347656 153.707031 180.128906 148.09375 180.078125 147.855469 C 180.054688 147.75 180.007812 147.65625 179.941406 147.570312 C 179.875 147.484375 179.796875 147.417969 179.699219 147.371094 C 179.605469 147.324219 179.503906 147.296875 179.394531 147.292969 C 179.289062 147.292969 179.1875 147.3125 179.089844 147.355469 C 177.023438 148.285156 174.878906 148.972656 172.65625 149.414062 C 172.449219 149.449219 172.285156 149.554688 172.171875 149.738281 C 172.058594 149.917969 172.027344 150.113281 172.085938 150.316406 C 172.550781 151.984375 174.042969 154.8125 176.570312 154.8125 Z M 178.8125 149.039062 C 178.953125 150.375 178.957031 152.832031 177.136719 153.300781 C 175.316406 153.765625 174.203125 151.789062 173.730469 150.664062 C 175.46875 150.261719 177.164062 149.71875 178.8125 149.039062 Z M 178.8125 149.039062"/><g clip-path="url(#a)"><path fill="#231F20" d="M 200.183594 147.34375 C 201.679688 145.578125 204.648438 141.75 204.039062 139.824219 C 203.734375 138.859375 203.117188 138.667969 202.773438 138.636719 C 202.554688 138.621094 202.34375 138.648438 202.140625 138.726562 C 202.226562 138.074219 202.21875 137.410156 201.984375 136.902344 C 201.796875 136.472656 201.480469 136.183594 201.039062 136.039062 C 200.351562 135.8125 199.757812 136.160156 199.265625 136.71875 C 199.074219 136.015625 198.691406 135.429688 197.953125 135.304688 C 197.511719 135.226562 197.117188 135.332031 196.769531 135.617188 C 196.367188 135.929688 196.0625 136.464844 195.835938 137.085938 C 195.820312 136.976562 195.804688 136.871094 195.785156 136.761719 C 195.59375 135.707031 195.089844 134.828125 194.277344 134.128906 C 193.691406 133.621094 193.007812 133.347656 192.230469 133.316406 C 189.867188 125.066406 184.355469 121.824219 180.089844 120.558594 C 177.738281 119.878906 175.339844 119.589844 172.894531 119.683594 L 173.382812 119.117188 C 173.480469 119 173.539062 118.863281 173.554688 118.710938 C 173.566406 118.554688 173.535156 118.414062 173.457031 118.28125 C 173.378906 118.148438 173.269531 118.050781 173.128906 117.988281 C 172.988281 117.925781 172.84375 117.910156 172.691406 117.941406 C 161.882812 120.136719 155.625 126.429688 154.355469 127.820312 C 152.5 127.703125 152.285156 126.570312 152.269531 126.449219 C 152.253906 126.277344 152.1875 126.132812 152.066406 126.011719 C 151.949219 125.890625 151.804688 125.820312 151.636719 125.800781 C 151.46875 125.785156 151.3125 125.820312 151.167969 125.914062 C 151.027344 126.003906 150.929688 126.132812 150.875 126.292969 C 150.386719 127.804688 151.277344 129.5 151.996094 130.539062 C 150.910156 130.566406 149.59375 130.203125 149.050781 130.011719 C 148.785156 129.914062 148.542969 129.964844 148.332031 130.15625 C 148.121094 130.347656 148.050781 130.582031 148.117188 130.859375 C 148.496094 132.375 149.878906 133.300781 150.691406 133.722656 C 148.796875 141.074219 151.03125 144.964844 151.972656 146.195312 C 151.410156 147.300781 151.402344 148.769531 152.070312 150.09375 C 152.539062 151.0625 153.257812 151.769531 154.226562 152.222656 C 154.683594 152.429688 155.160156 152.535156 155.660156 152.539062 C 156.464844 152.542969 157.160156 152.269531 157.746094 151.714844 C 158.949219 153.636719 160.617188 155.65625 162.917969 157.230469 L 162.75 157.285156 C 162.699219 157.261719 162.644531 157.246094 162.589844 157.234375 C 162.453125 157.210938 159.214844 156.664062 156.113281 157.855469 C 154.933594 158.308594 154.464844 159.089844 154.289062 159.660156 C 153.90625 160.875 154.425781 162.207031 154.816406 162.949219 C 154.050781 163.636719 152.765625 165.171875 152.628906 167.78125 C 152.472656 170.777344 152.574219 176.785156 152.597656 178.117188 C 152.261719 178.574219 151.660156 179.554688 151.910156 180.441406 C 152.011719 180.804688 152.289062 181.289062 153.035156 181.535156 C 153.648438 181.738281 154.691406 181.808594 155.796875 181.808594 C 157.316406 181.808594 158.941406 181.679688 159.738281 181.609375 L 159.738281 181.898438 C 159.730469 182.359375 159.804688 182.8125 159.957031 183.25 C 160.109375 183.6875 160.332031 184.085938 160.621094 184.445312 C 160.914062 184.804688 161.253906 185.105469 161.652344 185.34375 C 162.046875 185.582031 162.472656 185.746094 162.925781 185.835938 L 162.699219 189.425781 C 159.097656 189.550781 156.976562 192.328125 156.707031 197.265625 C 156.695312 197.515625 156.707031 197.765625 156.742188 198.015625 C 156.78125 198.261719 156.839844 198.503906 156.929688 198.742188 C 157.015625 198.976562 157.121094 199.203125 157.253906 199.414062 C 157.386719 199.628906 157.539062 199.824219 157.710938 200.007812 C 157.882812 200.191406 158.070312 200.351562 158.273438 200.496094 C 158.480469 200.640625 158.699219 200.761719 158.925781 200.859375 C 159.15625 200.960938 159.394531 201.035156 159.636719 201.085938 C 159.882812 201.132812 160.128906 201.160156 160.378906 201.160156 L 172.890625 201.160156 C 173.203125 201.160156 173.5 201.097656 173.785156 200.980469 C 174.070312 200.859375 174.320312 200.691406 174.539062 200.472656 C 174.757812 200.25 174.925781 199.996094 175.046875 199.710938 C 175.164062 199.421875 175.222656 199.125 175.222656 198.8125 L 175.222656 194.761719 C 175.222656 194.402344 175.125 194.074219 174.921875 193.773438 C 174.722656 193.476562 174.460938 193.257812 174.128906 193.125 L 174.128906 192.019531 C 174.660156 191.914062 175.148438 191.703125 175.589844 191.382812 C 176.03125 191.066406 176.390625 190.671875 176.660156 190.199219 L 176.671875 190.179688 L 177.683594 188.277344 L 178.785156 190.199219 C 179.058594 190.671875 179.414062 191.066406 179.855469 191.382812 C 180.296875 191.703125 180.785156 191.914062 181.316406 192.019531 L 181.316406 193.125 C 180.988281 193.257812 180.722656 193.476562 180.523438 193.773438 C 180.324219 194.074219 180.222656 194.402344 180.222656 194.761719 L 180.222656 198.8125 C 180.222656 199.125 180.28125 199.425781 180.402344 199.710938 C 180.519531 200 180.6875 200.253906 180.90625 200.472656 C 181.125 200.691406 181.378906 200.863281 181.664062 200.980469 C 181.949219 201.101562 182.246094 201.160156 182.558594 201.160156 L 195.070312 201.160156 C 195.320312 201.160156 195.566406 201.132812 195.8125 201.082031 C 196.054688 201.03125 196.292969 200.957031 196.519531 200.859375 C 196.75 200.761719 196.964844 200.636719 197.171875 200.496094 C 197.375 200.351562 197.5625 200.1875 197.734375 200.007812 C 197.90625 199.824219 198.058594 199.628906 198.191406 199.414062 C 198.320312 199.199219 198.429688 198.976562 198.515625 198.742188 C 198.601562 198.503906 198.664062 198.265625 198.703125 198.015625 C 198.738281 197.769531 198.75 197.519531 198.738281 197.269531 C 198.472656 192.3125 196.34375 189.539062 192.738281 189.425781 L 192.300781 184.464844 C 192.679688 184.402344 193.035156 184.273438 193.367188 184.078125 C 193.699219 183.882812 193.984375 183.632812 194.222656 183.328125 C 194.460938 183.023438 194.632812 182.683594 194.746094 182.316406 C 194.855469 181.945312 194.898438 181.566406 194.867188 181.179688 L 193.683594 165.574219 C 194.765625 161.597656 197.566406 156.378906 199.417969 152.914062 C 199.960938 151.894531 200.429688 151.023438 200.777344 150.328125 C 200.902344 150.082031 200.984375 149.820312 201.019531 149.546875 C 201.058594 149.273438 201.046875 149 200.996094 148.730469 C 200.941406 148.460938 200.84375 148.207031 200.703125 147.96875 C 200.566406 147.730469 200.390625 147.519531 200.183594 147.34375 Z M 197.648438 136.761719 C 197.691406 136.730469 197.699219 136.730469 197.707031 136.730469 C 197.933594 136.875 198.085938 138.023438 197.941406 139.179688 C 197.894531 139.304688 197.855469 139.417969 197.824219 139.519531 C 197.738281 139.710938 197.734375 139.90625 197.820312 140.101562 C 197.90625 140.296875 198.046875 140.429688 198.25 140.496094 C 198.449219 140.566406 198.644531 140.546875 198.828125 140.441406 C 199.011719 140.335938 199.128906 140.179688 199.175781 139.972656 C 199.574219 138.769531 200.261719 137.554688 200.609375 137.425781 C 200.632812 137.4375 200.652344 137.457031 200.675781 137.511719 C 200.9375 138.078125 200.515625 139.664062 200.148438 140.566406 C 200.148438 140.574219 200.148438 140.578125 200.148438 140.582031 C 200.0625 140.714844 199.980469 140.847656 199.90625 140.988281 C 199.816406 141.167969 199.800781 141.351562 199.863281 141.539062 C 199.925781 141.726562 200.042969 141.867188 200.21875 141.957031 C 200.394531 142.046875 200.578125 142.0625 200.765625 142 C 200.953125 141.941406 201.09375 141.820312 201.183594 141.644531 C 201.492188 141.03125 202.257812 140.210938 202.605469 140.097656 C 202.632812 140.152344 202.65625 140.207031 202.675781 140.265625 C 202.949219 141.140625 201.054688 144.109375 199.003906 146.519531 C 197.476562 145.53125 195.816406 144.898438 194.023438 144.621094 C 194.148438 143.464844 193.960938 142.292969 193.804688 141.328125 C 193.707031 140.734375 193.5625 139.851562 193.664062 139.605469 C 193.875 139.519531 194.148438 139.605469 194.421875 139.742188 C 194.472656 139.785156 194.523438 139.816406 194.582031 139.839844 L 194.597656 139.839844 C 194.804688 139.976562 194.996094 140.128906 195.175781 140.296875 C 195.175781 140.316406 195.175781 140.332031 195.175781 140.34375 C 195.160156 140.542969 195.21875 140.71875 195.347656 140.867188 C 195.472656 141.019531 195.636719 141.101562 195.832031 141.117188 L 195.890625 141.117188 C 196.078125 141.117188 196.238281 141.054688 196.375 140.925781 C 196.511719 140.796875 196.589844 140.640625 196.601562 140.453125 C 196.601562 140.359375 196.621094 140.261719 196.628906 140.164062 C 196.628906 140.128906 196.640625 140.09375 196.640625 140.058594 C 196.792969 138.675781 197.195312 137.121094 197.648438 136.761719 Z M 192.246094 141.550781 C 192.292969 141.550781 192.34375 141.558594 192.390625 141.5625 C 192.539062 142.496094 192.710938 143.539062 192.59375 144.503906 C 192.4375 144.503906 192.292969 144.503906 192.167969 144.503906 C 192.265625 143.523438 192.292969 142.535156 192.25 141.550781 Z M 194.375 137.046875 C 194.449219 137.429688 194.457031 137.8125 194.402344 138.195312 C 193.921875 138.0625 193.453125 138.105469 193.003906 138.324219 C 192.339844 138.652344 192.179688 139.300781 192.207031 140.089844 L 192.132812 140.070312 C 191.976562 138.496094 191.648438 136.957031 191.152344 135.453125 C 191.121094 135.367188 191.082031 135.285156 191.039062 135.203125 C 191.265625 134.992188 191.53125 134.855469 191.832031 134.792969 C 192.414062 134.699219 192.925781 134.851562 193.363281 135.253906 C 193.910156 135.730469 194.25 136.328125 194.378906 137.046875 Z M 151.792969 132.652344 C 151.304688 132.449219 150.851562 132.183594 150.441406 131.851562 C 151.441406 132.019531 152.644531 132.082031 153.566406 131.679688 C 153.671875 131.632812 153.761719 131.566406 153.835938 131.476562 C 153.90625 131.386719 153.957031 131.285156 153.980469 131.171875 C 154.003906 131.058594 154 130.945312 153.96875 130.832031 C 153.9375 130.722656 153.882812 130.621094 153.804688 130.539062 C 153.367188 130.035156 152.992188 129.488281 152.679688 128.898438 C 153.316406 129.167969 153.980469 129.292969 154.671875 129.277344 C 154.894531 129.277344 155.074219 129.191406 155.21875 129.023438 C 155.273438 128.957031 160.804688 122.550781 170.902344 119.851562 L 170.6875 120.105469 C 170.476562 120.363281 170.453125 120.632812 170.613281 120.925781 C 170.777344 121.214844 171.023438 121.332031 171.347656 121.28125 C 174.191406 120.941406 176.984375 121.171875 179.734375 121.976562 C 185.34375 123.65625 189.074219 127.582031 190.832031 133.636719 C 190.597656 133.753906 190.378906 133.894531 190.179688 134.058594 C 189.492188 133.382812 188.371094 132.640625 186.589844 132.316406 C 183.046875 131.671875 179.902344 129.035156 179.871094 129.011719 C 179.722656 128.878906 179.546875 128.820312 179.347656 128.835938 C 179.148438 128.847656 178.984375 128.933594 178.855469 129.085938 C 178.726562 129.242188 178.671875 129.417969 178.6875 129.617188 C 178.707031 129.816406 178.792969 129.980469 178.945312 130.109375 C 179.828125 130.832031 180.769531 131.46875 181.769531 132.015625 C 175.753906 133.667969 168.546875 131.675781 168.46875 131.660156 C 168.304688 131.613281 168.144531 131.625 167.988281 131.695312 C 167.832031 131.765625 167.714844 131.875 167.636719 132.03125 C 167.558594 132.183594 167.539062 132.34375 167.578125 132.515625 C 167.617188 132.683594 167.703125 132.820312 167.839844 132.925781 C 168.867188 133.726562 169.992188 134.351562 171.214844 134.804688 C 165.042969 137.542969 158.777344 133.816406 158.707031 133.773438 C 158.539062 133.671875 158.359375 133.640625 158.167969 133.691406 C 157.972656 133.738281 157.828125 133.847656 157.726562 134.015625 C 157.621094 134.1875 157.59375 134.367188 157.640625 134.558594 C 157.6875 134.753906 157.796875 134.902344 157.964844 135.003906 C 158.378906 135.246094 158.804688 135.464844 159.238281 135.664062 C 159.164062 136.917969 158.65625 142.183594 155.523438 144.585938 C 154.765625 144.382812 154.03125 144.460938 153.332031 144.8125 C 153.1875 144.886719 153.046875 144.972656 152.917969 145.066406 C 152.066406 143.796875 150.34375 140.191406 152.222656 133.515625 C 152.269531 133.339844 152.253906 133.167969 152.171875 133 C 152.089844 132.835938 151.964844 132.71875 151.792969 132.652344 Z M 156.402344 150.921875 C 155.867188 151.171875 155.335938 151.167969 154.808594 150.902344 C 154.148438 150.59375 153.664062 150.109375 153.347656 149.449219 C 152.671875 148.117188 152.964844 146.617188 153.984375 146.101562 C 154.363281 145.914062 154.757812 145.875 155.164062 145.976562 C 155.617188 147.519531 156.226562 149 156.988281 150.414062 C 156.835938 150.632812 156.640625 150.800781 156.402344 150.921875 Z M 156.558594 145.628906 C 156.558594 145.617188 156.558594 145.605469 156.558594 145.59375 C 159.730469 143.011719 160.460938 138.160156 160.632812 136.230469 C 162.457031 136.90625 164.347656 137.25 166.292969 137.269531 C 168.910156 137.285156 171.324219 136.582031 173.527344 135.164062 C 173.65625 135.082031 173.75 134.96875 173.804688 134.828125 C 173.863281 134.6875 173.875 134.539062 173.839844 134.390625 C 173.804688 134.230469 173.71875 134.09375 173.589844 133.988281 C 176.582031 134.253906 180.328125 134.183594 183.625 132.910156 C 184.496094 133.277344 185.398438 133.550781 186.328125 133.726562 C 188.160156 134.066406 189.078125 134.890625 189.496094 135.4375 C 189.53125 135.515625 189.582031 135.585938 189.644531 135.648438 C 189.707031 135.742188 189.757812 135.839844 189.800781 135.945312 C 189.828125 136.015625 192.359375 143.277344 189.324219 149.53125 C 187.582031 153.121094 184.34375 155.722656 179.699219 157.261719 C 173.878906 159.191406 168.863281 159.007812 164.8125 156.71875 C 159.269531 153.597656 157.082031 147.378906 156.558594 145.628906 Z M 180.453125 165.261719 L 178.578125 162.941406 L 179.414062 161.898438 C 180.023438 162.613281 180.488281 163.414062 180.808594 164.300781 Z M 174.835938 164.777344 C 175.164062 163.933594 175.558594 163.121094 176.019531 162.34375 L 176.703125 163.015625 L 175.015625 165.277344 Z M 177.59375 161.875 L 176.832031 161.128906 C 177.078125 160.796875 177.339844 160.484375 177.621094 160.183594 C 177.835938 160.351562 178.113281 160.570312 178.414062 160.847656 Z M 173.679688 163.808594 C 171.84375 162.851562 170.683594 161.074219 170.078125 159.902344 C 170.796875 159.984375 171.511719 160.027344 172.234375 160.027344 C 173.558594 160.023438 174.871094 159.898438 176.171875 159.65625 C 175.132812 160.917969 174.304688 162.300781 173.679688 163.808594 Z M 177.679688 164.109375 L 179.875 166.828125 L 177.714844 172.671875 L 175.609375 166.894531 Z M 181.820312 162.988281 C 180.929688 161.121094 179.441406 159.769531 178.582031 159.105469 C 179.09375 158.964844 179.617188 158.804688 180.144531 158.632812 C 181.941406 158.054688 183.636719 157.25 185.222656 156.222656 C 185.003906 158.988281 182.957031 161.6875 181.820312 162.988281 Z M 159.785156 177.746094 L 154.019531 177.652344 C 154.019531 177.300781 154.007812 176.828125 154 176.28125 C 154.15625 176.507812 154.34375 176.707031 154.5625 176.867188 C 155.222656 177.34375 156.214844 177.503906 157.257812 177.503906 C 158.109375 177.492188 158.953125 177.410156 159.789062 177.261719 Z M 162.164062 159.035156 C 161.304688 160.679688 160.585938 163.46875 161.152344 168.0625 C 160.375 168.960938 159.875 169.992188 159.660156 171.164062 C 159.375 172.445312 159.476562 173.699219 159.957031 174.917969 C 160.070312 175.1875 160.207031 175.441406 160.367188 175.679688 C 160.335938 175.6875 160.304688 175.695312 160.273438 175.707031 C 158.511719 176.078125 156.234375 176.308594 155.398438 175.707031 C 154.386719 174.96875 154.226562 171.289062 156.179688 164.710938 C 157.109375 161.566406 159.976562 159.882812 162.164062 159.035156 Z M 161.273438 174.355469 C 160.90625 173.410156 160.835938 172.441406 161.058594 171.449219 C 161.441406 169.582031 162.6875 168.160156 163.878906 168.160156 C 163.980469 168.160156 164.078125 168.171875 164.175781 168.191406 C 165.453125 168.453125 166.179688 170.390625 165.769531 172.417969 C 165.589844 173.414062 165.144531 174.277344 164.441406 175 C 163.867188 175.554688 163.234375 175.792969 162.65625 175.679688 C 162.078125 175.566406 161.585938 175.082031 161.273438 174.347656 Z M 167.195312 169.972656 C 167.441406 170.210938 167.578125 170.503906 167.597656 170.847656 C 167.636719 171.199219 167.539062 171.5 167.300781 171.757812 C 167.347656 171.15625 167.3125 170.558594 167.195312 169.964844 Z M 164.046875 166.714844 C 163.496094 166.6875 162.976562 166.792969 162.484375 167.039062 C 161.925781 161.015625 163.84375 158.859375 164.484375 158.316406 L 164.675781 158.277344 C 165.011719 158.449219 165.339844 158.601562 165.6875 158.746094 C 165 159.839844 164.136719 162.125 164.046875 166.714844 Z M 155.652344 160.09375 C 155.777344 159.695312 156.09375 159.414062 156.621094 159.203125 C 157.628906 158.832031 158.664062 158.617188 159.734375 158.5625 C 158.34375 159.332031 156.933594 160.417969 155.917969 161.929688 C 155.671875 161.363281 155.476562 160.648438 155.652344 160.089844 Z M 153.480469 180.167969 C 153.378906 180.128906 153.296875 180.085938 153.289062 180.050781 C 153.238281 179.871094 153.429688 179.445312 153.671875 179.085938 L 159.765625 179.1875 L 159.753906 180.160156 C 158.152344 180.308594 154.597656 180.539062 153.480469 180.167969 Z M 173.792969 198.8125 C 173.792969 199.0625 173.703125 199.277344 173.527344 199.453125 C 173.351562 199.628906 173.140625 199.71875 172.890625 199.71875 L 160.378906 199.71875 C 160.070312 199.71875 159.777344 199.65625 159.492188 199.535156 C 159.210938 199.414062 158.964844 199.238281 158.753906 199.015625 C 158.539062 198.789062 158.382812 198.53125 158.277344 198.242188 C 158.167969 197.949219 158.125 197.648438 158.140625 197.339844 C 158.300781 194.382812 159.261719 190.855469 162.949219 190.855469 C 167.820312 190.855469 168.164062 195.351562 168.183594 195.550781 C 168.195312 195.75 168.273438 195.917969 168.421875 196.046875 C 168.570312 196.179688 168.742188 196.242188 168.941406 196.230469 C 169.136719 196.21875 169.300781 196.136719 169.433594 195.988281 C 169.566406 195.839844 169.625 195.667969 169.613281 195.46875 C 169.582031 195.113281 169.519531 194.765625 169.429688 194.421875 L 173.472656 194.421875 C 173.5625 194.425781 173.636719 194.457031 173.699219 194.519531 C 173.765625 194.585938 173.796875 194.660156 173.800781 194.75 Z M 168.910156 192.980469 C 168.765625 192.671875 168.59375 192.375 168.40625 192.089844 L 172.691406 192.089844 L 172.691406 192.992188 Z M 180.023438 189.480469 L 178.296875 186.460938 C 178.558594 186.578125 178.84375 186.691406 179.160156 186.800781 C 179.238281 186.828125 179.3125 186.839844 179.394531 186.839844 C 179.566406 186.839844 179.722656 186.78125 179.855469 186.667969 C 179.988281 186.554688 180.066406 186.410156 180.097656 186.238281 C 180.125 186.0625 180.09375 185.902344 180.003906 185.75 C 179.914062 185.601562 179.789062 185.496094 179.621094 185.4375 C 177.582031 184.742188 177.226562 183.921875 177.222656 183.910156 C 177.230469 183.933594 177.234375 183.945312 177.234375 183.945312 L 175.859375 184.34375 C 175.914062 184.53125 176.210938 185.304688 177.546875 186.078125 L 177.511719 186.078125 L 177.472656 186.085938 L 177.445312 186.085938 L 177.410156 186.101562 L 177.378906 186.113281 L 177.351562 186.125 L 177.3125 186.148438 L 177.300781 186.148438 L 177.289062 186.15625 L 177.25 186.179688 L 177.226562 186.199219 L 177.195312 186.226562 L 177.171875 186.242188 L 177.144531 186.269531 L 177.121094 186.296875 C 177.121094 186.304688 177.105469 186.316406 177.101562 186.324219 L 177.078125 186.355469 C 177.078125 186.355469 177.066406 186.371094 177.058594 186.382812 C 177.050781 186.394531 177.042969 186.40625 177.039062 186.417969 C 177.035156 186.421875 177.035156 186.425781 177.039062 186.433594 L 175.425781 189.464844 C 175.21875 189.824219 174.9375 190.109375 174.578125 190.316406 C 174.21875 190.523438 173.835938 190.628906 173.421875 190.628906 L 167.050781 190.628906 C 166.175781 189.988281 165.203125 189.601562 164.125 189.472656 L 164.347656 185.882812 L 172.035156 185.863281 C 172.894531 185.894531 173.699219 185.695312 174.445312 185.269531 C 175.191406 184.84375 175.773438 184.25 176.1875 183.492188 L 177.617188 180.871094 L 178.558594 182.476562 C 178.890625 183.046875 179.296875 183.550781 179.78125 183.996094 C 180.265625 184.441406 180.800781 184.804688 181.394531 185.085938 C 181.988281 185.367188 182.609375 185.550781 183.257812 185.640625 C 183.910156 185.734375 184.554688 185.722656 185.203125 185.617188 L 190.882812 184.699219 L 191.304688 189.5 C 190.238281 189.628906 189.265625 190.015625 188.398438 190.652344 L 182.035156 190.652344 C 181.617188 190.648438 181.230469 190.542969 180.875 190.335938 C 180.515625 190.125 180.230469 189.839844 180.023438 189.480469 Z M 187.042969 192.089844 C 186.851562 192.375 186.683594 192.671875 186.535156 192.980469 L 182.75 192.992188 L 182.75 192.089844 Z M 197.308594 197.34375 C 197.324219 197.652344 197.28125 197.953125 197.175781 198.246094 C 197.070312 198.535156 196.910156 198.792969 196.699219 199.019531 C 196.488281 199.242188 196.238281 199.417969 195.957031 199.539062 C 195.671875 199.660156 195.378906 199.722656 195.070312 199.722656 L 182.558594 199.722656 C 182.308594 199.722656 182.097656 199.632812 181.921875 199.457031 C 181.746094 199.28125 181.65625 199.066406 181.65625 198.816406 L 181.65625 194.761719 C 181.660156 194.671875 181.691406 194.59375 181.757812 194.53125 C 181.820312 194.46875 181.894531 194.433594 181.984375 194.429688 L 186.019531 194.429688 C 185.929688 194.773438 185.867188 195.125 185.835938 195.480469 C 185.828125 195.679688 185.890625 195.851562 186.019531 196 C 186.152344 196.144531 186.316406 196.226562 186.515625 196.234375 C 186.714844 196.246094 186.886719 196.183594 187.03125 196.050781 C 187.179688 195.917969 187.257812 195.753906 187.269531 195.554688 C 187.28125 195.363281 187.621094 190.855469 192.503906 190.855469 C 196.1875 190.859375 197.148438 194.386719 197.308594 197.34375 Z M 199.503906 149.679688 C 199.164062 150.359375 198.699219 151.226562 198.160156 152.226562 C 196.253906 155.792969 193.375 161.164062 192.273438 165.316406 C 192.25 165.394531 192.242188 165.472656 192.25 165.554688 L 193.445312 181.285156 C 193.460938 181.492188 193.4375 181.695312 193.378906 181.894531 C 193.320312 182.09375 193.226562 182.273438 193.097656 182.4375 C 192.96875 182.601562 192.816406 182.734375 192.636719 182.839844 C 192.460938 182.941406 192.269531 183.011719 192.066406 183.042969 L 184.984375 184.1875 C 184.480469 184.273438 183.972656 184.277344 183.464844 184.207031 C 182.960938 184.136719 182.476562 183.992188 182.011719 183.773438 C 181.550781 183.554688 181.128906 183.273438 180.75 182.925781 C 180.375 182.578125 180.054688 182.183594 179.796875 181.738281 L 178.214844 179.046875 C 178.078125 178.800781 177.867188 178.683594 177.589844 178.691406 C 177.3125 178.695312 177.105469 178.820312 176.972656 179.0625 L 174.9375 182.800781 C 174.652344 183.324219 174.25 183.734375 173.734375 184.03125 C 173.21875 184.328125 172.664062 184.46875 172.070312 184.449219 L 172.046875 184.449219 L 163.675781 184.46875 C 163.339844 184.46875 163.019531 184.402344 162.710938 184.273438 C 162.402344 184.140625 162.128906 183.957031 161.894531 183.71875 C 161.660156 183.480469 161.480469 183.203125 161.355469 182.890625 C 161.230469 182.578125 161.167969 182.253906 161.171875 181.917969 L 161.210938 178.691406 C 161.230469 178.628906 161.238281 178.566406 161.242188 178.503906 C 161.242188 178.4375 161.230469 178.375 161.214844 178.308594 L 161.230469 176.972656 C 161.4375 176.921875 161.589844 176.878906 161.679688 176.855469 C 162.082031 177.046875 162.507812 177.144531 162.953125 177.140625 C 163.816406 177.140625 164.675781 176.761719 165.429688 176.035156 C 166.140625 175.320312 166.648438 174.476562 166.949219 173.503906 C 167.828125 173.300781 169.125 172.539062 169.011719 170.746094 C 168.898438 168.957031 167.261719 168.160156 166.3125 167.976562 C 166.074219 167.664062 165.792969 167.402344 165.46875 167.1875 C 165.519531 161.839844 166.605469 159.863281 167.066406 159.261719 C 167.492188 159.394531 167.921875 159.511719 168.359375 159.609375 C 168.820312 160.730469 170.371094 163.960938 173.511719 165.320312 L 177.03125 175 C 177.144531 175.316406 177.371094 175.476562 177.707031 175.472656 C 178.039062 175.472656 178.265625 175.316406 178.382812 175.003906 L 182.1875 164.714844 C 182.96875 163.933594 187.023438 159.632812 186.65625 155.175781 C 188.347656 153.796875 189.671875 152.125 190.628906 150.160156 C 191.269531 148.824219 191.71875 147.429688 191.980469 145.96875 C 192.871094 145.902344 195.914062 145.898438 199.21875 148.398438 C 199.414062 148.550781 199.539062 148.746094 199.589844 148.988281 C 199.640625 149.230469 199.609375 149.460938 199.496094 149.679688 Z M 199.503906 149.679688"/></g><path fill="#231F20" d="M 165.941406 139.453125 C 166.0625 139.441406 166.164062 139.382812 166.242188 139.289062 C 166.316406 139.191406 166.351562 139.082031 166.335938 138.957031 C 166.324219 138.832031 166.269531 138.734375 166.171875 138.65625 C 166.074219 138.578125 165.964844 138.546875 165.84375 138.558594 C 165.769531 138.566406 164.027344 138.773438 163.6875 140.457031 C 163.664062 140.578125 163.6875 140.691406 163.753906 140.792969 C 163.824219 140.898438 163.917969 140.960938 164.039062 140.984375 C 164.066406 140.992188 164.097656 140.992188 164.128906 140.996094 C 164.371094 140.992188 164.515625 140.875 164.566406 140.632812 C 164.773438 139.605469 165.890625 139.457031 165.941406 139.453125 Z M 165.941406 139.453125"/><path fill="#231F20" d="M 178.390625 135.898438 C 178.488281 135.898438 178.574219 135.871094 178.652344 135.816406 C 178.691406 135.785156 179.617188 135.136719 180.460938 135.753906 C 180.558594 135.828125 180.671875 135.855469 180.792969 135.835938 C 180.914062 135.816406 181.011719 135.757812 181.085938 135.65625 C 181.160156 135.554688 181.1875 135.445312 181.167969 135.320312 C 181.148438 135.199219 181.089844 135.101562 180.988281 135.027344 C 179.613281 134.007812 178.1875 135.042969 178.117188 135.085938 C 177.945312 135.214844 177.894531 135.382812 177.960938 135.589844 C 178.027344 135.796875 178.167969 135.898438 178.386719 135.898438 Z M 178.390625 135.898438"/><path fill="#231F20" d="M 188.589844 165.828125 L 183.621094 165.828125 C 183.421875 165.828125 183.253906 165.898438 183.113281 166.039062 C 182.972656 166.179688 182.902344 166.347656 182.902344 166.546875 C 182.902344 166.746094 182.972656 166.917969 183.113281 167.058594 C 183.253906 167.199219 183.421875 167.269531 183.621094 167.269531 L 188.589844 167.269531 C 188.789062 167.269531 188.957031 167.199219 189.097656 167.058594 C 189.234375 166.917969 189.304688 166.746094 189.304688 166.546875 C 189.304688 166.347656 189.234375 166.179688 189.097656 166.039062 C 188.957031 165.898438 188.789062 165.828125 188.589844 165.828125 Z M 188.589844 165.828125"/><path fill="#FFF" d="M 181.503906 139.667969 C 181.519531 139.808594 181.507812 139.949219 181.472656 140.082031 C 181.4375 140.21875 181.382812 140.34375 181.304688 140.453125 C 181.226562 140.5625 181.128906 140.648438 181.019531 140.71875 C 180.90625 140.785156 180.789062 140.824219 180.660156 140.839844 C 180.535156 140.851562 180.410156 140.839844 180.285156 140.796875 C 180.164062 140.753906 180.050781 140.691406 179.949219 140.601562 C 179.851562 140.507812 179.769531 140.402344 179.707031 140.277344 C 179.644531 140.152344 179.605469 140.019531 179.589844 139.878906 C 179.574219 139.734375 179.582031 139.597656 179.617188 139.460938 C 179.652344 139.324219 179.710938 139.203125 179.789062 139.09375 C 179.867188 138.984375 179.960938 138.894531 180.074219 138.828125 C 180.183594 138.761719 180.304688 138.722656 180.429688 138.707031 C 180.558594 138.691406 180.683594 138.707031 180.804688 138.75 C 180.929688 138.789062 181.039062 138.855469 181.140625 138.945312 C 181.242188 139.035156 181.324219 139.144531 181.386719 139.269531 C 181.449219 139.394531 181.488281 139.527344 181.503906 139.667969 Z M 181.503906 139.667969"/><path fill="#FFF" d="M 169.746094 143.238281 C 169.761719 143.378906 169.75 143.519531 169.71875 143.652344 C 169.683594 143.789062 169.625 143.914062 169.546875 144.023438 C 169.46875 144.132812 169.375 144.21875 169.261719 144.285156 C 169.148438 144.355469 169.03125 144.394531 168.90625 144.40625 C 168.777344 144.421875 168.652344 144.40625 168.53125 144.367188 C 168.40625 144.324219 168.292969 144.257812 168.195312 144.167969 C 168.09375 144.078125 168.011719 143.972656 167.949219 143.847656 C 167.886719 143.722656 167.847656 143.589844 167.832031 143.445312 C 167.816406 143.304688 167.828125 143.167969 167.863281 143.03125 C 167.894531 142.894531 167.953125 142.773438 168.03125 142.664062 C 168.109375 142.554688 168.207031 142.464844 168.316406 142.398438 C 168.429688 142.332031 168.546875 142.289062 168.675781 142.277344 C 168.800781 142.261719 168.925781 142.277344 169.050781 142.316406 C 169.171875 142.359375 169.285156 142.425781 169.386719 142.515625 C 169.484375 142.605469 169.566406 142.710938 169.628906 142.839844 C 169.691406 142.964844 169.730469 143.097656 169.746094 143.238281 Z M 169.746094 143.238281"/><path fill="#231F20" d="M 177.226562 152.300781 C 176.765625 151.714844 175.757812 151.269531 175.222656 152 C 175.183594 152.050781 175.234375 152.109375 175.285156 152.113281 C 175.933594 152.167969 176.585938 152.003906 177.175781 152.363281 C 177.21875 152.390625 177.253906 152.335938 177.226562 152.300781 Z M 177.226562 152.300781"/><g clip-path="url(#b)"><path fill="#FF1616" d="M 194.792969 211.269531 L 194.652344 211.269531 L 194.652344 221.667969 L 182.53125 221.667969 L 182.53125 211.269531 L 177.875 211.269531 L 177.875 235.945312 L 182.53125 235.945312 L 182.53125 225.96875 L 194.652344 225.96875 L 194.792969 242.40625 L 157.921875 242.40625 L 157.921875 239.679688 L 153.316406 239.679688 L 153.316406 247.015625 L 199.402344 247.015625 L 199.402344 211.191406 Z M 194.792969 211.269531"/></g><g clip-path="url(#c)"><path fill="#FF1616" d="M 153.316406 200.925781 L 153.316406 235.914062 L 157.921875 235.914062 L 157.921875 235.90625 C 160.390625 235.90625 162.847656 235.90625 165.328125 235.90625 C 170.433594 235.90625 174.5625 234.140625 174.5625 228.648438 C 174.5625 227.089844 173.507812 224.027344 170.617188 223.144531 C 172.910156 222.128906 173.824219 220.292969 173.824219 218.382812 C 173.824219 213.410156 170.195312 211.230469 165.328125 211.230469 C 162.859375 211.230469 160.390625 211.230469 157.921875 211.230469 L 157.921875 205.535156 L 194.792969 205.535156 L 194.792969 207.417969 L 199.402344 207.417969 L 199.402344 200.925781 Z M 158.203125 215.453125 L 165.328125 215.453125 C 168.285156 215.453125 169.207031 217.355469 169.207031 218.488281 C 169.207031 219.898438 168.253906 221.128906 165.328125 221.128906 L 158.203125 221.128906 Z M 158.203125 225.21875 L 165.328125 225.21875 C 167.226562 225.21875 169.945312 226.382812 169.945312 228.597656 C 169.945312 230.921875 167.226562 231.554688 165.328125 231.554688 L 158.203125 231.554688 Z M 158.203125 225.21875"/></g></svg>